<mxfile host="app.diagrams.net" agent="Mozilla/5.0 (Windows NT 10.0; Win64; x64) AppleWebKit/537.36 (KHTML, like Gecko) Chrome/131.0.0.0 Safari/537.36" version="26.0.5">
  <diagram name="Trang-1" id="CE-0hZz67_L6dIzVgs5u">
    <mxGraphModel dx="2473" dy="426" grid="1" gridSize="10" guides="1" tooltips="1" connect="1" arrows="1" fold="1" page="1" pageScale="1" pageWidth="827" pageHeight="1169" math="0" shadow="0">
      <root>
        <mxCell id="0" />
        <mxCell id="1" parent="0" />
        <mxCell id="YN5GvYBxM3wX2zlReCBx-1" value="" style="shape=image;verticalLabelPosition=bottom;labelBackgroundColor=default;verticalAlign=top;aspect=fixed;imageAspect=0;image=https://github.com/Joshua-omolewa/Stock_streaming_pipeline_project/raw/main/img/Project%20Architecture.jpg;" parent="1" vertex="1">
          <mxGeometry x="370" y="330" width="845" height="748" as="geometry" />
        </mxCell>
        <mxCell id="YN5GvYBxM3wX2zlReCBx-4" style="edgeStyle=orthogonalEdgeStyle;rounded=0;orthogonalLoop=1;jettySize=auto;html=1;strokeColor=light-dark(#ff0000, #ededed);strokeWidth=4;" parent="1" source="YN5GvYBxM3wX2zlReCBx-2" edge="1">
          <mxGeometry relative="1" as="geometry">
            <mxPoint x="1400" y="735" as="targetPoint" />
          </mxGeometry>
        </mxCell>
        <mxCell id="YN5GvYBxM3wX2zlReCBx-2" value="" style="rounded=0;whiteSpace=wrap;html=1;gradientColor=none;fillColor=none;strokeColor=light-dark(#fa0000, #ededed);strokeWidth=5;" parent="1" vertex="1">
          <mxGeometry x="880" y="660" width="140" height="150" as="geometry" />
        </mxCell>
        <mxCell id="YN5GvYBxM3wX2zlReCBx-3" value="" style="endArrow=classic;html=1;rounded=0;" parent="1" edge="1">
          <mxGeometry width="50" height="50" relative="1" as="geometry">
            <mxPoint x="930" y="750" as="sourcePoint" />
            <mxPoint x="980" y="700" as="targetPoint" />
          </mxGeometry>
        </mxCell>
        <mxCell id="YN5GvYBxM3wX2zlReCBx-5" value="&lt;font style=&quot;font-size: 20px;&quot;&gt;Thay bằng EC2, done&lt;/font&gt;" style="text;html=1;align=center;verticalAlign=middle;resizable=0;points=[];autosize=1;strokeColor=none;fillColor=none;" parent="1" vertex="1">
          <mxGeometry x="1390" y="715" width="220" height="40" as="geometry" />
        </mxCell>
        <mxCell id="YN5GvYBxM3wX2zlReCBx-9" style="edgeStyle=orthogonalEdgeStyle;rounded=0;orthogonalLoop=1;jettySize=auto;html=1;strokeWidth=4;strokeColor=#FF0505;" parent="1" source="YN5GvYBxM3wX2zlReCBx-6" edge="1">
          <mxGeometry relative="1" as="geometry">
            <mxPoint x="660" y="1120" as="targetPoint" />
          </mxGeometry>
        </mxCell>
        <mxCell id="YN5GvYBxM3wX2zlReCBx-6" value="" style="rounded=0;whiteSpace=wrap;html=1;fillColor=none;strokeWidth=4;strokeColor=light-dark(#ff0000, #ededed);" parent="1" vertex="1">
          <mxGeometry x="600" y="750" width="120" height="60" as="geometry" />
        </mxCell>
        <mxCell id="YN5GvYBxM3wX2zlReCBx-8" value="không dùng Flink do Flink là để xử lý dữ liệu lớn, tích hợp AI/ML" style="text;html=1;align=center;verticalAlign=middle;resizable=0;points=[];autosize=1;strokeColor=none;fillColor=none;strokeWidth=22;fontSize=22;" parent="1" vertex="1">
          <mxGeometry x="320" y="1130" width="650" height="40" as="geometry" />
        </mxCell>
        <mxCell id="YN5GvYBxM3wX2zlReCBx-12" style="edgeStyle=orthogonalEdgeStyle;rounded=0;orthogonalLoop=1;jettySize=auto;html=1;strokeWidth=4;strokeColor=light-dark(#ff0000, #ededed);" parent="1" source="YN5GvYBxM3wX2zlReCBx-11" edge="1">
          <mxGeometry relative="1" as="geometry">
            <mxPoint x="300" y="720" as="targetPoint" />
          </mxGeometry>
        </mxCell>
        <mxCell id="YN5GvYBxM3wX2zlReCBx-11" value="" style="rounded=0;whiteSpace=wrap;html=1;fillColor=none;strokeWidth=4;strokeColor=light-dark(#ff0000, #ededed);" parent="1" vertex="1">
          <mxGeometry x="380" y="640" width="160" height="160" as="geometry" />
        </mxCell>
        <mxCell id="YN5GvYBxM3wX2zlReCBx-13" value="Deploy API lên ECS ?" style="text;html=1;align=center;verticalAlign=middle;resizable=0;points=[];autosize=1;strokeColor=none;fillColor=none;strokeWidth=22;fontSize=22;" parent="1" vertex="1">
          <mxGeometry x="70" y="700" width="240" height="40" as="geometry" />
        </mxCell>
        <mxCell id="YN5GvYBxM3wX2zlReCBx-15" style="edgeStyle=orthogonalEdgeStyle;rounded=0;orthogonalLoop=1;jettySize=auto;html=1;strokeWidth=4;strokeColor=light-dark(#ff0000, #ededed);" parent="1" source="YN5GvYBxM3wX2zlReCBx-14" edge="1">
          <mxGeometry relative="1" as="geometry">
            <mxPoint x="280" y="630" as="targetPoint" />
          </mxGeometry>
        </mxCell>
        <mxCell id="YN5GvYBxM3wX2zlReCBx-14" value="" style="rounded=0;whiteSpace=wrap;html=1;fillColor=none;strokeWidth=4;strokeColor=light-dark(#ff0000, #ededed);" parent="1" vertex="1">
          <mxGeometry x="670" y="600" width="120" height="60" as="geometry" />
        </mxCell>
        <mxCell id="YN5GvYBxM3wX2zlReCBx-16" value="Change Data Capture" style="text;html=1;align=center;verticalAlign=middle;resizable=0;points=[];autosize=1;strokeColor=none;fillColor=none;strokeWidth=22;fontSize=22;" parent="1" vertex="1">
          <mxGeometry x="50" y="610" width="240" height="40" as="geometry" />
        </mxCell>
        <UserObject label="https://github.com/Joshua-omolewa/Stock_streaming_pipeline_project" link="https://github.com/Joshua-omolewa/Stock_streaming_pipeline_project" id="YN5GvYBxM3wX2zlReCBx-17">
          <mxCell style="text;whiteSpace=wrap;fontSize=20;" parent="1" vertex="1">
            <mxGeometry x="500" y="280" width="650" height="40" as="geometry" />
          </mxCell>
        </UserObject>
        <mxCell id="iYBvfYPeAiD4nXReOlTR-2" style="edgeStyle=orthogonalEdgeStyle;rounded=0;orthogonalLoop=1;jettySize=auto;html=1;" parent="1" source="iYBvfYPeAiD4nXReOlTR-1" edge="1">
          <mxGeometry relative="1" as="geometry">
            <mxPoint x="280" y="370" as="targetPoint" />
          </mxGeometry>
        </mxCell>
        <mxCell id="iYBvfYPeAiD4nXReOlTR-1" value="" style="rounded=0;whiteSpace=wrap;html=1;fillColor=none;strokeWidth=4;strokeColor=light-dark(#ff0000, #ededed);" parent="1" vertex="1">
          <mxGeometry x="640" y="320" width="200" height="100" as="geometry" />
        </mxCell>
        <mxCell id="iYBvfYPeAiD4nXReOlTR-3" value="Text" style="text;html=1;align=center;verticalAlign=middle;resizable=0;points=[];autosize=1;strokeColor=none;fillColor=none;" parent="1" vertex="1">
          <mxGeometry x="195" y="368" width="50" height="30" as="geometry" />
        </mxCell>
        <mxCell id="23G69L1_6s5JdzTNbJ2y-2" style="edgeStyle=orthogonalEdgeStyle;rounded=0;orthogonalLoop=1;jettySize=auto;html=1;entryX=0;entryY=0.5;entryDx=0;entryDy=0;" parent="1" source="23G69L1_6s5JdzTNbJ2y-1" target="23G69L1_6s5JdzTNbJ2y-3" edge="1">
          <mxGeometry relative="1" as="geometry">
            <mxPoint x="540" y="1410" as="targetPoint" />
          </mxGeometry>
        </mxCell>
        <mxCell id="23G69L1_6s5JdzTNbJ2y-10" style="edgeStyle=orthogonalEdgeStyle;rounded=0;orthogonalLoop=1;jettySize=auto;html=1;" parent="1" source="23G69L1_6s5JdzTNbJ2y-1" edge="1">
          <mxGeometry relative="1" as="geometry">
            <mxPoint x="370" y="1290.0000000000002" as="targetPoint" />
          </mxGeometry>
        </mxCell>
        <mxCell id="ypYvv4vw_HAr2LhjokS0-5" style="edgeStyle=orthogonalEdgeStyle;rounded=0;orthogonalLoop=1;jettySize=auto;html=1;" edge="1" parent="1" source="23G69L1_6s5JdzTNbJ2y-1">
          <mxGeometry relative="1" as="geometry">
            <mxPoint x="370" y="1530" as="targetPoint" />
          </mxGeometry>
        </mxCell>
        <mxCell id="23G69L1_6s5JdzTNbJ2y-1" value="EC2&lt;br&gt;Docker, API, DB" style="whiteSpace=wrap;html=1;" parent="1" vertex="1">
          <mxGeometry x="310" y="1380" width="120" height="60" as="geometry" />
        </mxCell>
        <mxCell id="23G69L1_6s5JdzTNbJ2y-4" style="edgeStyle=orthogonalEdgeStyle;rounded=0;orthogonalLoop=1;jettySize=auto;html=1;" parent="1" source="23G69L1_6s5JdzTNbJ2y-3" edge="1">
          <mxGeometry relative="1" as="geometry">
            <mxPoint x="739.9999999999998" y="1409.9999999999998" as="targetPoint" />
          </mxGeometry>
        </mxCell>
        <mxCell id="23G69L1_6s5JdzTNbJ2y-3" value="&lt;div&gt;EC2,&lt;/div&gt;&lt;div&gt;&lt;span style=&quot;background-color: transparent; color: light-dark(rgb(0, 0, 0), rgb(255, 255, 255));&quot;&gt;Debezium,&amp;nbsp;&lt;/span&gt;&lt;span style=&quot;background-color: transparent; color: light-dark(rgb(0, 0, 0), rgb(255, 255, 255));&quot;&gt;Kafka&lt;/span&gt;&lt;/div&gt;" style="rounded=0;whiteSpace=wrap;html=1;" parent="1" vertex="1">
          <mxGeometry x="530" y="1380" width="120" height="60" as="geometry" />
        </mxCell>
        <mxCell id="23G69L1_6s5JdzTNbJ2y-7" style="edgeStyle=orthogonalEdgeStyle;rounded=0;orthogonalLoop=1;jettySize=auto;html=1;" parent="1" source="23G69L1_6s5JdzTNbJ2y-5" edge="1">
          <mxGeometry relative="1" as="geometry">
            <mxPoint x="960" y="1410" as="targetPoint" />
          </mxGeometry>
        </mxCell>
        <mxCell id="23G69L1_6s5JdzTNbJ2y-5" value="EMR,&lt;br&gt;Spark Streaming" style="rounded=0;whiteSpace=wrap;html=1;" parent="1" vertex="1">
          <mxGeometry x="740" y="1380" width="120" height="60" as="geometry" />
        </mxCell>
        <mxCell id="23G69L1_6s5JdzTNbJ2y-6" value="" style="shape=image;verticalLabelPosition=bottom;labelBackgroundColor=default;verticalAlign=top;aspect=fixed;imageAspect=0;image=https://miro.medium.com/v2/resize:fit:700/1*S9GQURZSbTa_YOxfDevRGA.png;" parent="1" vertex="1">
          <mxGeometry x="-760" y="1010" width="700" height="394" as="geometry" />
        </mxCell>
        <mxCell id="23G69L1_6s5JdzTNbJ2y-14" style="edgeStyle=orthogonalEdgeStyle;rounded=0;orthogonalLoop=1;jettySize=auto;html=1;" parent="1" source="23G69L1_6s5JdzTNbJ2y-9" edge="1">
          <mxGeometry relative="1" as="geometry">
            <mxPoint x="1180" y="1410.0000000000002" as="targetPoint" />
          </mxGeometry>
        </mxCell>
        <mxCell id="23G69L1_6s5JdzTNbJ2y-9" value="S3" style="rounded=0;whiteSpace=wrap;html=1;" parent="1" vertex="1">
          <mxGeometry x="960" y="1380" width="120" height="60" as="geometry" />
        </mxCell>
        <mxCell id="23G69L1_6s5JdzTNbJ2y-12" style="edgeStyle=orthogonalEdgeStyle;rounded=0;orthogonalLoop=1;jettySize=auto;html=1;" parent="1" source="23G69L1_6s5JdzTNbJ2y-11" edge="1">
          <mxGeometry relative="1" as="geometry">
            <mxPoint x="590" y="1260.0000000000002" as="targetPoint" />
          </mxGeometry>
        </mxCell>
        <mxCell id="23G69L1_6s5JdzTNbJ2y-11" value="Airflow" style="whiteSpace=wrap;html=1;" parent="1" vertex="1">
          <mxGeometry x="310" y="1230" width="120" height="60" as="geometry" />
        </mxCell>
        <mxCell id="23G69L1_6s5JdzTNbJ2y-13" value="Spark" style="whiteSpace=wrap;html=1;" parent="1" vertex="1">
          <mxGeometry x="590" y="1230" width="120" height="60" as="geometry" />
        </mxCell>
        <mxCell id="23G69L1_6s5JdzTNbJ2y-15" value="Glue" style="whiteSpace=wrap;html=1;" parent="1" vertex="1">
          <mxGeometry x="1180" y="1380" width="120" height="60" as="geometry" />
        </mxCell>
        <mxCell id="23G69L1_6s5JdzTNbJ2y-16" value="" style="shape=image;verticalLabelPosition=bottom;labelBackgroundColor=default;verticalAlign=top;aspect=fixed;imageAspect=0;image=https://github.com/aws-samples/aws-msk-cdc-data-pipeline-with-debezium/raw/main/aws-msk-connect-cdc-data-pipeline-arch.svg;" parent="1" vertex="1">
          <mxGeometry x="-860" y="1453" width="1124" height="301" as="geometry" />
        </mxCell>
        <mxCell id="tmSWfVcpKPODpcX_pc05-1" value="&lt;div&gt;Standalone&lt;/div&gt;&lt;div&gt;When a single MySQL server is used, the server must have the binlog enabled so the Debezium MySQL connector can monitor the server.&lt;/div&gt;&lt;div&gt;This is often acceptable, since the binary log can also be used as an incremental backup.&lt;/div&gt;&lt;div&gt;In this case, the MySQL connector always connects to and follows this standalone MySQL server instance.&lt;/div&gt;" style="whiteSpace=wrap;html=1;" parent="1" vertex="1">
          <mxGeometry x="1420" y="1360" width="750" height="60" as="geometry" />
        </mxCell>
        <mxCell id="ypYvv4vw_HAr2LhjokS0-1" value="&lt;font style=&quot;font-size: 50px;&quot;&gt;Debezium Architecture&lt;/font&gt;" style="text;html=1;align=center;verticalAlign=middle;resizable=0;points=[];autosize=1;strokeColor=none;fillColor=none;" vertex="1" parent="1">
          <mxGeometry x="680" y="1650" width="530" height="70" as="geometry" />
        </mxCell>
        <mxCell id="ypYvv4vw_HAr2LhjokS0-2" value="" style="shape=image;verticalLabelPosition=bottom;labelBackgroundColor=default;verticalAlign=top;aspect=fixed;imageAspect=0;image=https://debezium.io/documentation/reference/stable/_images/debezium-architecture.png;" vertex="1" parent="1">
          <mxGeometry x="390" y="1730" width="1200" height="273" as="geometry" />
        </mxCell>
        <mxCell id="ypYvv4vw_HAr2LhjokS0-4" value="Kafka connect: cung cấp REST API để quản lí các connectors - là các plugins. Configure trong&amp;nbsp;&lt;span style=&quot;background-color: initial; font-family: Consolas, Monaco, &amp;quot;Andale Mono&amp;quot;, &amp;quot;Ubuntu Mono&amp;quot;, monospace; font-size: 1em; word-spacing: normal; text-align: left; color: light-dark(rgb(0, 0, 0), rgb(255, 255, 255));&quot;&gt;connect config&lt;/span&gt;&lt;div&gt;Debezium connectors MySQL: thực ra là 1 plugin ở Kafka connect. Dùng Kafka connect để POST &lt;b&gt;configure &lt;/b&gt;này lên kafka connect&lt;/div&gt;" style="text;html=1;align=center;verticalAlign=middle;resizable=0;points=[];autosize=1;strokeColor=none;fillColor=none;" vertex="1" parent="1">
          <mxGeometry x="200" y="2033" width="720" height="40" as="geometry" />
        </mxCell>
        <mxCell id="ypYvv4vw_HAr2LhjokS0-6" value="API: Docker build trước rồi gắn vào docker compose&lt;br&gt;Dùng packer để tạo AMI chạy docker compose này" style="text;html=1;align=center;verticalAlign=middle;resizable=0;points=[];autosize=1;strokeColor=none;fillColor=none;" vertex="1" parent="1">
          <mxGeometry x="210" y="1553" width="300" height="40" as="geometry" />
        </mxCell>
      </root>
    </mxGraphModel>
  </diagram>
</mxfile>
